<?xml version="1.0" encoding="UTF-8"?>
<svg xmlns="http://www.w3.org/2000/svg" width="24" height="24" viewBox="0 0 24 24" fill="none" stroke="#2A7D6F" stroke-width="2" stroke-linecap="round" stroke-linejoin="round">
  <path d="M12 2a2 2 0 0 1 2 2c0 .74-.4 1.39-1 1.73V7h1a7 7 0 0 1 7 7h1a1 1 0 0 1 1 1v3a1 1 0 0 1-1 1h-1v1a2 2 0 0 1-2 2H5a2 2 0 0 1-2-2v-1H2a1 1 0 0 1-1-1v-3a1 1 0 0 1 1-1h1a7 7 0 0 1 7-7h1V5.73c-.6-.34-1-.99-1-1.73a2 2 0 0 1 2-2z"></path>
  <path d="M10 13a1 1 0 1 0 0-2 1 1 0 0 0 0 2z"></path>
  <path d="M14 13a1 1 0 1 0 0-2 1 1 0 0 0 0 2z"></path>
  <path d="M16 17a2 2 0 0 1-8 0"></path>
</svg>
