<?xml version="1.0" encoding="UTF-8"?>
<svg width="300" height="300" viewBox="0 0 300 300" fill="none" xmlns="http://www.w3.org/2000/svg">
  <!-- Background Elements -->
  <circle cx="150" cy="150" r="130" fill="#1B5A50" opacity="0.1"/>
  <circle cx="150" cy="150" r="100" fill="#D36135" opacity="0.1"/>
  
  <!-- Decorative Elements -->
  <circle cx="70" cy="90" r="5" fill="#F9F4EF"/>
  <circle cx="240" cy="120" r="3" fill="#F9F4EF"/>
  <circle cx="120" cy="230" r="4" fill="#F9F4EF"/>
  <circle cx="200" cy="60" r="3" fill="#F9F4EF"/>
  
  <!-- Building/Venue -->
  <rect x="75" y="130" width="150" height="110" rx="4" fill="#F9F4EF"/>
  <rect x="85" y="140" width="130" height="90" rx="2" fill="#2A7D6F" opacity="0.2"/>
  <rect x="105" y="170" width="90" height="40" rx="20" fill="#F9F4EF"/>
  <path d="M150 110L180 130H120L150 110Z" fill="#F9F4EF"/>
  
  <!-- People Silhouettes -->
  <circle cx="125" cy="190" r="10" fill="#2A7D6F"/>
  <rect x="120" y="200" width="10" height="20" rx="2" fill="#2A7D6F"/>
  
  <circle cx="145" cy="190" r="10" fill="#D36135"/>
  <rect x="140" y="200" width="10" height="20" rx="2" fill="#D36135"/>
  
  <circle cx="165" cy="190" r="10" fill="#79854E"/>
  <rect x="160" y="200" width="10" height="20" rx="2" fill="#79854E"/>
  
  <circle cx="185" cy="190" r="10" fill="#2A7D6F"/>
  <rect x="180" y="200" width="10" height="20" rx="2" fill="#2A7D6F"/>
  
  <!-- Banner -->
  <rect x="60" y="70" width="180" height="30" rx="15" fill="#D36135"/>
  <text x="150" y="90" font-family="Arial" font-size="14" font-weight="bold" text-anchor="middle" fill="#FFFFFF">CAREER FAIR</text>
  
  <!-- Podium/Stage -->
  <rect x="100" y="220" width="100" height="10" rx="2" fill="#79854E"/>
  <rect x="115" y="230" width="70" height="10" rx="2" fill="#79854E" opacity="0.7"/>
  
  <!-- Calendar Icon -->
  <rect x="210" y="180" width="30" height="30" rx="4" fill="white" stroke="#2A7D6F" stroke-width="2"/>
  <rect x="215" y="175" width="4" height="8" rx="1" fill="#2A7D6F"/>
  <rect x="231" y="175" width="4" height="8" rx="1" fill="#2A7D6F"/>
  <line x1="210" y1="190" x2="240" y2="190" stroke="#2A7D6F" stroke-width="1"/>
  <text x="225" y="203" font-family="Arial" font-size="12" font-weight="bold" text-anchor="middle" fill="#2A7D6F">15</text>
  
  <!-- Briefcase Icon -->
  <rect x="60" y="180" width="30" height="25" rx="3" fill="white" stroke="#D36135" stroke-width="2"/>
  <rect x="72.5" y="175" width="5" height="10" rx="2" fill="#D36135"/>
  <line x1="60" y1="185" x2="90" y2="185" stroke="#D36135" stroke-width="1"/>
  
  <!-- Network Lines -->
  <line x1="125" y1="180" x2="145" y2="180" stroke="#79854E" stroke-width="1" stroke-dasharray="2 2"/>
  <line x1="145" y1="180" x2="165" y2="180" stroke="#79854E" stroke-width="1" stroke-dasharray="2 2"/>
  <line x1="165" y1="180" x2="185" y2="180" stroke="#79854E" stroke-width="1" stroke-dasharray="2 2"/>
  
  <!-- Decorative Stars -->
  <path d="M240 80L243 86L250 87L245 92L246 99L240 96L234 99L235 92L230 87L237 86L240 80Z" fill="#D36135"/>
  <path d="M60 130L62 134L67 135L63.5 139L64 144L60 142L56 144L56.5 139L53 135L58 134L60 130Z" fill="#D36135"/>
  <path d="M200 240L202 244L207 245L203.5 249L204 254L200 252L196 254L196.5 249L193 245L198 244L200 240Z" fill="#D36135"/>
</svg>
