<svg width="90" height="90" viewBox="0 0 90 90" xmlns="http://www.w3.org/2000/svg">
  <!-- Background circle -->
  <circle cx="45" cy="45" r="40" fill="#ffffff" stroke="#e0e0e0" stroke-width="1"/>
  
  <!-- Heart/leaf shape in green and blue gradient -->
  <defs>
    <linearGradient id="heartGradient" x1="0%" y1="0%" x2="100%" y2="100%">
      <stop offset="0%" style="stop-color:#4CAF50;stop-opacity:1" />
      <stop offset="50%" style="stop-color:#2E7D32;stop-opacity:1" />
      <stop offset="100%" style="stop-color:#1976D2;stop-opacity:1" />
    </linearGradient>
  </defs>
  
  <!-- Main heart/leaf shape -->
  <path d="M45 25 
           C35 15, 20 20, 20 35
           C20 50, 45 65, 45 65
           C45 65, 70 50, 70 35
           C70 20, 55 15, 45 25 Z" 
        fill="url(#heartGradient)" 
        stroke="#1565C0" 
        stroke-width="1"/>
  
  <!-- Inner highlight -->
  <path d="M45 30
           C40 25, 30 28, 30 38
           C30 48, 45 58, 45 58
           C45 58, 60 48, 60 38
           C60 28, 50 25, 45 30 Z" 
        fill="rgba(255,255,255,0.3)"/>
  
  <!-- Small decorative elements -->
  <circle cx="35" cy="40" r="2" fill="#81C784" opacity="0.7"/>
  <circle cx="55" cy="40" r="2" fill="#64B5F6" opacity="0.7"/>
  <circle cx="45" cy="50" r="1.5" fill="#ffffff" opacity="0.8"/>
</svg>
