<svg width="90" height="90" viewBox="0 0 90 90" xmlns="http://www.w3.org/2000/svg">
  <!-- Outer circle background -->
  <circle cx="45" cy="45" r="40" fill="#2E7D32"/>
  
  <!-- Inner circle -->
  <circle cx="45" cy="45" r="32" fill="#4CAF50"/>
  
  <!-- Heart shape for care/community -->
  <path d="M35 30c-3-3-8-3-8 2 0 3 8 13 8 13s8-10 8-13c0-5-5-5-8-2z" fill="white" opacity="0.3"/>
  
  <!-- Hands reaching out (simplified) -->
  <path d="M25 40c-2 0-3 1-3 3s1 3 3 3h6v-6h-6z" fill="white" opacity="0.4"/>
  <path d="M65 40c2 0 3 1 3 3s-1 3-3 3h-6v-6h6z" fill="white" opacity="0.4"/>
  
  <!-- RNC Text -->
  <text x="45" y="48" font-family="Arial, sans-serif" font-size="16" font-weight="bold" text-anchor="middle" fill="white">RNC</text>
  
  <!-- Subtitle -->
  <text x="45" y="60" font-family="Arial, sans-serif" font-size="8" text-anchor="middle" fill="white" opacity="0.9">Network</text>
</svg>
